<?xml version="1.0" encoding="UTF-8"?>
<svg id="Lag_2" data-name="Lag 2" xmlns="http://www.w3.org/2000/svg" viewBox="0 0 25 15">
  <defs>
    <style>
      .cls-1 {
        fill: #fff;
        fill-rule: evenodd;
      }
    </style>
  </defs>
  <g id="Lag_1-2" data-name="Lag 1">
    <g id="Symbols">
      <g id="global-_-footer-_-desk-black" data-name="global-/-footer-/-desk-black">
        <g id="bottom">
          <g id="Group-4">
            <g id="Visa">
              <g id="Group-14">
                <path id="Combined-Shape" class="cls-1" d="M17.53,0c4.12,0,7.47,3.36,7.47,7.5s-3.35,7.5-7.47,7.5H7.47C3.35,15,0,11.64,0,7.5S3.35,0,7.47,0h10.06Zm-3.28,7.84c-.51,2.41-2.2,3.53-5.35,3.53H2.61l.16,.19c1.14,1.32,2.82,2.16,4.7,2.16h10.33c1.86-.08,3.5-.99,4.59-2.36h-5.35l-2.78-3.53ZM22.52,3.8l-3.23,3.24,3.35,3.99,.15-.24c.6-.96,.95-2.09,.95-3.3,0-1.39-.45-2.67-1.22-3.7h0Zm-13.57,2.33h-3.25l-.89,2.46h3.78c.92-.05,1.22-.49,1.44-1.29,.24-.84-.36-1.17-1.08-1.17h0ZM17.53,1.27H7.19c-1.77,.09-3.36,.92-4.44,2.19h7.29c2.38,.04,4.15,.7,4.34,2.75h0l2.63-2.75h5.24l-.17-.2c-1.13-1.22-2.75-1.99-4.54-1.99h0Z"/>
              </g>
            </g>
          </g>
        </g>
      </g>
    </g>
  </g>
</svg>