<?xml version="1.0" encoding="UTF-8"?>
<svg id="Lag_2" data-name="Lag 2" xmlns="http://www.w3.org/2000/svg" viewBox="0 0 28.61 18.92">
  <defs>
    <style>
      .cls-1 {
        fill: #fff;
      }

      .cls-2 {
        opacity: 0;
      }
    </style>
  </defs>
  <g id="Lag_1-2" data-name="Lag 1">
    <g id="Symbols">
      <g id="global-_-footer-_-desk-black" data-name="global-/-footer-/-desk-black">
        <g id="bottom">
          <g id="Group-4">
            <g id="Visa-electron">
              <g id="Group" class="cls-2">
                <rect id="Rectangle" class="cls-1" width="28.61" height="18.92"/>
              </g>
              <rect id="Rectangle-2" data-name="Rectangle" class="cls-1" x="10.53" y="3.3" width="7.55" height="12.33"/>
              <path id="Path" class="cls-1" d="M11.31,9.46c0-2.4,1.1-4.68,2.99-6.16C11.09,.77,6.47,1.14,3.7,4.14,.93,7.15,.93,11.78,3.7,14.78c2.77,3,7.39,3.37,10.6,.85-1.89-1.49-3-3.76-2.99-6.16Z"/>
              <path id="Path-2" data-name="Path" class="cls-1" d="M26.99,9.46c0,3-1.71,5.74-4.41,7.05-2.7,1.31-5.91,.97-8.27-.89,1.89-1.49,2.99-3.76,2.99-6.16s-1.1-4.68-2.99-6.16c2.36-1.85,5.57-2.2,8.27-.89,2.7,1.31,4.41,4.05,4.41,7.05h0Z"/>
            </g>
          </g>
        </g>
      </g>
    </g>
  </g>
</svg>