<?xml version="1.0" encoding="UTF-8"?>
<svg id="Lag_2" data-name="Lag 2" xmlns="http://www.w3.org/2000/svg" viewBox="0 0 2433.51 784.15">
  <defs>
    <style>
      .cls-1, .cls-2, .cls-3 {
        fill: #fff;
      }

      .cls-4 {
        opacity: .4;
      }

      .cls-2 {
        opacity: .7;
      }

      .cls-2, .cls-3 {
        isolation: isolate;
      }

      .cls-3 {
        opacity: .9;
      }
    </style>
  </defs>
  <g id="Lag_1-2" data-name="Lag 1">
    <g>
      <path class="cls-1" d="M295.16,784.15c-26.82,0-51.01-16.15-61.29-40.93L5.06,190.87c-14-33.8,2.05-72.54,35.84-86.55L280.56,5.06c33.79-14,72.53,2.04,86.53,35.82v.02s228.82,552.39,228.82,552.39c13.98,33.79-2.07,72.51-35.84,86.51l-239.65,99.3c-8,3.33-16.58,5.04-25.25,5.05h0Zm10.75-748.5c-4.01,0-7.99,.8-11.7,2.35L54.55,137.26c-15.6,6.46-23,24.34-16.54,39.94h0s228.81,552.4,228.81,552.4c6.48,15.59,24.35,22.99,39.95,16.55l239.65-99.32c15.6-6.46,23-24.34,16.54-39.94,0,0,0,0,0,0L334.15,54.55c-4.74-11.42-15.88-18.87-28.24-18.89h0Z"/>
      <path class="cls-2" d="M349.26,90.98l32.95-13.65,90.59,218.71-32.95,13.65-90.59-218.71Z"/>
      <path class="cls-2" d="M580.68,556.56l-32.95,13.65-102.55-247.58,32.95-13.65,102.55,247.58Z"/>
      <path class="cls-1" d="M506.13,406.1c-68.54,28.42-125.77,67.6-163.24,114.82l-96.61-233.32c44.07-51.2,100.16-90.65,163.24-114.82,68.54-28.42,137.78-42.18,196.61-34.16l96.63,233.31c-67.36-5.07-134.93,6.67-196.64,34.17Z"/>
      <g class="cls-4">
        <path class="cls-3" d="M506.13,406.1c-68.54,28.42-125.77,67.6-163.24,114.82l-96.61-233.32c44.07-51.2,100.16-90.65,163.24-114.82,68.54-28.42,137.78-42.18,196.61-34.16l96.63,233.31c-67.36-5.07-134.93,6.67-196.64,34.17h0Z"/>
        <path class="cls-2" d="M506.13,406.1c-68.54,28.42-125.77,67.6-163.24,114.82l-96.61-233.32c44.07-51.2,100.16-90.65,163.24-114.82,68.54-28.42,137.78-42.18,196.61-34.16l96.63,233.31c-67.36-5.07-134.93,6.67-196.64,34.17h0Z"/>
      </g>
      <path class="cls-1" d="M537.61,477.23c-74.19,0-142.1,14.34-194.74,43.6v-235.91c60.3-30.43,127.22-45.41,194.74-43.6,74.19,0,143.43,13.76,194.73,43.65v235.91c-60.29-30.46-127.2-45.46-194.73-43.65Zm379,.22l60.02-189.74c.63-2.63,2.88-4.55,5.57-4.77h30.13c2.7,.38,4.97,2.21,5.91,4.77l46.72,119.71c.91,2.39,3.3,2.61,4.09,0l46.38-119.71c.94-2.56,3.21-4.4,5.91-4.77h30.13c2.69,.22,4.94,2.15,5.57,4.77l59.34,189.74c1.07,2.27,.1,4.98-2.17,6.05-.71,.33-1.49,.48-2.27,.43h-35.81c-2.54,.12-4.79-1.61-5.34-4.09l-38.08-123.23c-.57-2.39-3.3-2.39-4.09,0l-45.47,122.32c-.77,2.94-3.43,5-6.48,5h-21.03c-3.3,0-5-1.82-6.25-5l-46.38-122.32c-.91-2.39-3.3-2.39-3.87,0l-38.99,123.23c-.61,2.54-2.96,4.27-5.57,4.09h-34.1c-2.45-.04-4.4-2.05-4.37-4.5,.01-.69,.18-1.37,.5-1.98h0Zm311.15-68.21c-.88-43.94,34.03-80.27,77.97-81.15,43.94-.88,80.27,34.03,81.15,77.97s-34.03,80.27-77.97,81.15c-.53,.01-1.05,.02-1.58,.02-42.48,1.45-78.09-31.82-79.54-74.3-.04-1.23-.05-2.46-.04-3.69Zm118.23,0c-1.44-21.55-20.09-37.85-41.64-36.4-21.55,1.45-37.85,20.09-36.4,41.64,1.39,20.68,18.66,36.68,39.39,36.49,22.13-.92,39.32-19.59,38.42-41.72h.23Zm110.95,62.41c-2.96-2.39-5.57-1.48-5.57,2.61v3.87c0,2.99-2.36,5.45-5.34,5.57h-27.74c-3.03-.12-5.45-2.54-5.57-5.57v-189.74c.12-3.03,2.54-5.45,5.57-5.57h29.22c2.99,.12,5.35,2.58,5.34,5.57v54.11c0,3.87,2.61,5,6.82,2.05,11.19-8.38,24.79-12.93,38.77-12.96,40.47,0,71.51,34.1,71.51,77.99,1.89,41.14-29.92,76.03-71.07,77.93-.56,.03-1.13,.05-1.69,.06-14.92-.16-29.25-5.83-40.24-15.92h0Zm72.76-62.07c1.65-21.54-14.48-40.33-36.01-41.97-21.54-1.65-40.33,14.48-41.97,36.01-.15,1.98-.15,3.98,0,5.96-.82,21.83,16.21,40.2,38.05,41.02,.24,0,.48,.02,.72,.02,22.16-.49,39.72-18.85,39.23-41.01,0-.12,0-.25,0-.37v.34Zm64.69-112.89c0-12.56,10.18-22.74,22.74-22.74s22.74,10.18,22.74,22.74-10.18,22.74-22.74,22.74-22.74-10.18-22.74-22.74Zm2.05,181.89v-137.56c0-2.99,2.36-5.45,5.34-5.57h29.22c3.2-.13,5.9,2.36,6.02,5.56,0,0,0,0,0,0v137.1c-.12,3.03-2.54,5.45-5.57,5.57h-29.67c-2.99-.12-5.35-2.58-5.34-5.57v.45Zm73.1-45.02v-145.17c0-2.99,2.36-5.45,5.34-5.57h29.22c3.03,.12,5.45,2.54,5.57,5.57v146.08c0,9.44,4.09,15.69,14.44,15.69,3.08,0,5.57,2.49,5.57,5.57h0v24.21c-.12,2.99-2.58,5.35-5.57,5.34-38.88,0-54.57-12.73-54.57-51.73h0Zm71.05-23.42c.16-42.44,34.69-76.72,77.13-76.57s76.72,34.69,76.57,77.13c0,5.34-1.48,9.78-6.82,9.78h-101.63c-2.61,0-3.52,1.48-3.3,3.87,2.53,17.81,18.45,30.59,36.38,29.22,10.79,.16,21.09-4.51,28.08-12.73,2.17-3.05,5.7-4.83,9.44-4.77h27.17c4.77,0,6.82,3.3,5,7.96-18.94,38.61-65.6,54.56-104.21,35.62-26.61-13.05-43.51-40.08-43.58-69.73l-.23,.23Zm107.89-13.64c2.05,0,2.96-.91,2.61-3.3-3.1-16.32-17.5-28.03-34.1-27.74-16.24-.02-30.36,11.14-34.1,26.94-.57,2.05,0,4.09,2.39,4.09h63.21Zm70.37,81.62v-189.74c0-2.99,2.36-5.45,5.34-5.57h93.11c42.52,0,71.51,24.78,71.51,66.5s-32.85,67.41-73.55,67.41h-49.34c-2.69-.28-5.09,1.67-5.37,4.36-.04,.4-.03,.81,.03,1.21v55.82c-.12,3.03-2.54,5.45-5.57,5.57h-30.69c-3.03-.06-5.46-2.54-5.46-5.57h0Zm96.4-95.72c17.62-.56,31.48-15.23,31.04-32.85,.51-16.76-12.66-30.75-29.42-31.26-.58-.02-1.15-.02-1.73,0h-49.68c-3.52,0-5,1.82-5,5.34v53.77c0,3.52,1.48,5.34,5,5.34l49.79-.34Zm87.88,26.83c-1.58-41.47,30.76-76.37,72.23-77.95,.37-.01,.73-.03,1.1-.03,14.52,.08,28.5,5.46,39.33,15.12,2.61,2.39,5.57,2.05,5.57-1.48v-3.87c0-2.96,2.39-5.34,5.34-5.34h27.74c3.03,.12,5.45,2.54,5.57,5.57v97.54c0,7.39,2.61,10.69,7.73,11.37,2.65,.05,4.83,2.13,5,4.77v25.69c0,2.76-2.24,5-5,5h0c-19.55,0-31.04-5.57-37.52-16.83-1.82-2.96-3.87-3.52-6.82-.57-12.49,12.86-29.71,20.01-47.63,19.78-41.36-1.2-73.91-35.7-72.71-77.06,.02-.58,.04-1.15,.07-1.72Zm118.23,0c1.64-21.47-14.43-40.21-35.9-41.86s-40.21,14.43-41.86,35.9c-.15,1.98-.15,3.97,0,5.95-1.64,21.47,14.43,40.21,35.9,41.86s40.21-14.43,41.86-35.9c.15-1.98,.15-3.97,0-5.95Zm65.14,126.53v-24.21c.12-2.99,2.58-5.35,5.57-5.34,19.02,1.42,36.56-10.3,42.52-28.42,1-3.8,.59-7.84-1.14-11.37l-54.34-123c-1.44-2.57-.53-5.83,2.04-7.27,.83-.47,1.78-.7,2.73-.68h29.22c2.96,0,4.77,2.39,5.91,5.34l34.1,78.67c2.39,6.25,6.25,5.91,8.87,0l32.51-78.9c1.14-2.96,2.61-4.77,5.57-4.77h28.08c2.82-.15,5.23,2.02,5.38,4.84,.04,.75-.09,1.51-.37,2.21l-55.93,132.33c-20.35,48.2-41.95,66.16-85.15,66.16-3.03-.12-5.45-2.54-5.57-5.57h0Z"/>
    </g>
  </g>
</svg>