<?xml version="1.0" encoding="UTF-8"?>
<svg id="Lag_2" data-name="Lag 2" xmlns="http://www.w3.org/2000/svg" viewBox="0 0 27.22 15.6">
  <defs>
    <style>
      .cls-1 {
        fill: #fff;
        fill-rule: evenodd;
      }
    </style>
  </defs>
  <g id="Lag_1-2" data-name="Lag 1">
    <g id="Symbols">
      <g id="global-_-footer-_-desk-black" data-name="global-/-footer-/-desk-black">
        <g id="bottom">
          <g id="Group-4">
            <g id="Visa-electron">
              <path id="Fill-137" class="cls-1" d="M6.17,9.43c3.48-1.48,8.35-2.83,14.81-1.48l.07-1.63c-6.81-.74-11.7,1.42-14.88,2.95v.16"/>
              <polyline id="Fill-138" class="cls-1" points="0 10.52 3.27 10.52 3.27 11.51 1.24 11.51 1.22 12.41 3.25 12.41 3.25 13.35 1.22 13.35 1.22 14.26 3.22 14.26 3.22 15.24 0 15.24 0 10.52"/>
              <polyline id="Fill-139" class="cls-1" points="4.35 10.16 5.44 10.16 5.44 15.24 4.36 15.24 4.35 10.16"/>
              <path id="Fill-140" class="cls-1" d="M8.72,13.37c0-.35-.17-.67-.58-.67s-.67,.33-.75,.67h1.33Zm.89,1.73c-.41,.34-1.03,.5-1.59,.5-1.27,0-1.85-.87-1.85-1.74,0-1.02,.79-1.89,1.88-1.89,1.33,0,1.75,.91,1.75,2.08h-2.42c0,.26,.17,.71,.84,.71,.42,0,.66-.12,.98-.34l.4,.68h0Z"/>
              <path id="Fill-141" class="cls-1" d="M13.43,15.25c-.34,.2-.9,.35-1.31,.35-1.14,0-1.95-.62-1.95-1.73s.81-1.9,2.03-1.9c.43,0,.94,.13,1.21,.3l-.4,.77c-.18-.07-.38-.13-.58-.13-.62,0-1.03,.35-1.03,.91,0,.48,.4,.87,.92,.87,.23,0,.47-.1,.67-.2l.44,.77"/>
              <path id="Fill-142" class="cls-1" d="M13.82,12.05h.51v-1.16s1.09,0,1.09,0l-.03,1.16h.93l-.02,.86h-.93c0,.48-.03,.98-.03,1.27s.07,.44,.33,.44c.16,0,.29-.08,.42-.16l.25,.8c-.33,.21-.74,.34-1.12,.34-.92,0-.96-.61-.96-1.39,0-.42,.03-.84,.03-1.3h-.49l.03-.86"/>
              <path id="Fill-143" class="cls-1" d="M16.72,12.07h1.21v.5h.01c.18-.3,.42-.6,.89-.6,.13,0,.27,.01,.4,.04l-.16,1.2c-.12-.04-.25-.07-.43-.07-.4,0-.72,.34-.72,.41l-.02,2.04h-1.21l.03-3.53"/>
              <path id="Fill-144" class="cls-1" d="M21.59,14.72c.59,0,.76-.48,.76-.93s-.18-.93-.76-.93-.76,.48-.76,.93,.18,.93,.76,.93Zm0-2.74c1.32,0,2,.79,2,1.81s-.68,1.81-2,1.81-2-.79-2-1.81,.68-1.81,2-1.81h0Z"/>
              <path id="Fill-145" class="cls-1" d="M23.98,11.74h1.12v.38c.26-.27,.65-.51,1.05-.51,.69,0,1.06,.41,1.06,1.37,0,.72,0,1.49-.01,2.26h-1.12c0-.67,.01-1.36,.01-2.08,0-.29-.07-.51-.41-.51-.18,0-.44,.17-.59,.32v2.27h-1.15l.03-3.5"/>
              <polyline id="Fill-146" class="cls-1" points="9.8 5.08 11.33 0 12.7 0 11.17 5.08 9.8 5.08"/>
              <path id="Fill-147" class="cls-1" d="M9.18,0l-1.16,2.15c-.3,.56-.47,.85-.55,1.21h-.02c.02-.45-.04-1.01-.04-1.32l-.13-2.04h-2.17l-.02,.14c.56,0,.89,.3,.98,.91l.42,4.03h1.34L10.52,0h-1.35"/>
              <path id="Fill-148" class="cls-1" d="M19.58,2.08c-.01-.38-.03-.89,0-1.2h-.02c-.08,.25-.42,1.01-.57,1.38l-.48,1.12h1.14l-.07-1.3Zm.15,3l-.04-.76h-1.62s-.33,.76-.33,.76h-1.41L18.88,0h1.73l.43,5.08h-1.32Z"/>
              <path id="Fill-149" class="cls-1" d="M14,5.08c-.95,0-1.58-.29-2.03-.55l.64-.95c.4,.22,.72,.47,1.45,.47,.23,0,.46-.06,.59-.28,.19-.31-.04-.48-.57-.77l-.26-.16c-.78-.52-1.11-1.01-.75-1.87,.24-.55,.85-.97,1.87-.97,.7,0,1.36,.3,1.75,.59l-.73,.84c-.37-.3-.69-.45-1.04-.45-.28,0-.5,.11-.57,.25-.14,.27,.04,.45,.45,.7l.31,.19c.94,.58,1.17,1.19,.93,1.76-.41,.98-1.2,1.2-2.04,1.2"/>
            </g>
          </g>
        </g>
      </g>
    </g>
  </g>
</svg>