<?xml version="1.0" encoding="UTF-8"?>
<svg id="Lag_2" data-name="Lag 2" xmlns="http://www.w3.org/2000/svg" viewBox="0 0 30.24 9.69">
  <defs>
    <style>
      .cls-1 {
        fill: #fff;
        fill-rule: evenodd;
      }
    </style>
  </defs>
  <g id="Lag_1-2" data-name="Lag 1">
    <g id="Symbols">
      <g id="global-_-footer-_-desk-black" data-name="global-/-footer-/-desk-black">
        <g id="bottom">
          <g id="Group-4">
            <g id="Group-2">
              <polyline id="Fill-4" class="cls-1" points="13.37 9.69 10.89 9.69 12.44 .01 14.92 .01 13.37 9.69"/>
              <path id="Fill-5" class="cls-1" d="M8.62,.01l-2.37,6.66-.28-1.43h0S5.14,.89,5.14,.89C5.14,.89,5.04,.01,3.96,.01H.05l-.05,.16S1.2,.43,2.6,1.28l2.16,8.41h2.59L11.29,.01h-2.67"/>
              <path id="Fill-6" class="cls-1" d="M25.21,6.27l1.31-3.62,.74,3.62h-2.05Zm2.74,3.42h2.29L28.24,.01h-2c-.93,0-1.15,.72-1.15,.72l-3.72,8.96h2.6l.52-1.44h3.17l.29,1.44h0Z"/>
              <path id="Fill-7" class="cls-1" d="M21.83,2.43l.35-2.01S21.11,.01,19.99,.01C18.79,.01,15.93,.54,15.93,3.11c0,2.42,3.36,2.45,3.36,3.71s-3.01,1.04-4.01,.24l-.36,2.1s1.08,.53,2.74,.53,4.16-.86,4.16-3.2-3.39-2.66-3.39-3.71,2.36-.92,3.4-.35"/>
              <path id="Fill-8" class="cls-1" d="M5.95,5.12L5.12,.85s-.1-.85-1.17-.85H.05L0,.16s1.87,.39,3.67,1.84c1.72,1.39,2.28,3.12,2.28,3.12"/>
            </g>
          </g>
        </g>
      </g>
    </g>
  </g>
</svg>